<svg width="43" height="43" viewBox="0 0 43 43" fill="none" xmlns="http://www.w3.org/2000/svg">
<g clip-path="url(#clip0_504_2100)">
<path d="M21.5 26.875C25.2107 26.875 28.2188 23.8669 28.2188 20.1562C28.2188 16.4456 25.2107 13.4375 21.5 13.4375C17.7893 13.4375 14.7812 16.4456 14.7812 20.1562C14.7812 23.8669 17.7893 26.875 21.5 26.875Z" stroke="white" stroke-width="3" stroke-miterlimit="10"/>
<path d="M10.7163 33.492C11.7273 31.5006 13.27 29.8281 15.1734 28.6598C17.0768 27.4915 19.2666 26.873 21.4999 26.873C23.7333 26.873 25.923 27.4915 27.8264 28.6598C29.7298 29.8281 31.2725 31.5006 32.2835 33.492" stroke="white" stroke-width="3" stroke-linecap="round" stroke-linejoin="round"/>
<path d="M29.5625 9.40625H37.625" stroke="white" stroke-width="3" stroke-linecap="round" stroke-linejoin="round"/>
<path d="M33.5938 5.375V13.4375" stroke="white" stroke-width="3" stroke-linecap="round" stroke-linejoin="round"/>
<path d="M37.4234 18.9637C37.5593 19.8023 37.6267 20.6505 37.625 21.5C37.625 24.6893 36.6793 27.8069 34.9075 30.4586C33.1356 33.1103 30.6172 35.1771 27.6708 36.3976C24.7243 37.6181 21.4821 37.9374 18.3542 37.3152C15.2262 36.693 12.353 35.1573 10.0979 32.9021C7.84279 30.647 6.30703 27.7738 5.68484 24.6459C5.06266 21.5179 5.38199 18.2757 6.60245 15.3293C7.82291 12.3828 9.8897 9.86442 12.5414 8.09258C15.1932 6.32074 18.3108 5.37503 21.5 5.37503C22.3495 5.37336 23.1978 5.44077 24.0363 5.57659" stroke="white" stroke-width="3" stroke-linecap="round" stroke-linejoin="round"/>
</g>
<defs>
<clipPath id="clip0_504_2100">
<rect width="43" height="43" fill="white"/>
</clipPath>
</defs>
</svg>
